<?xml version="1.0" encoding="utf-8"?>
<!-- Generator: Adobe Illustrator 17.1.0, SVG Export Plug-In . SVG Version: 6.00 Build 0)  -->
<!DOCTYPE svg PUBLIC "-//W3C//DTD SVG 1.1//EN" "http://www.w3.org/Graphics/SVG/1.1/DTD/svg11.dtd">
<svg version="1.1" id="图层_1" xmlns="http://www.w3.org/2000/svg" xmlns:xlink="http://www.w3.org/1999/xlink" x="0px" y="0px"
	 width="30px" height="30px" viewBox="0 0 30 30" enable-background="new 0 0 30 30" xml:space="preserve">
<rect fill="none" width="30" height="30"/>
<path fill="#FFFFFF" d="M6.908,19.058c-0.345,0.347-0.756,1.01-0.911,1.472l-1.954,5.862c-0.154,0.463,0.099,0.718,0.564,0.562
	l5.861-1.952c0.465-0.157,1.125-0.565,1.474-0.911l11.095-11.089l-5.032-5.032L6.908,19.058z M9.762,23.754l-2.669,0.934
	l-0.776-0.782l0.933-2.669l0.524-0.527l2.514,2.52L9.762,23.754z M25.481,8.036l-2.517-2.518c-0.692-0.691-1.823-0.691-2.516,0
	l-1.252,1.255l5.034,5.032l1.251-1.254C26.173,9.861,26.173,8.728,25.481,8.036z"/>
<linearGradient id="SVGID_1_" gradientUnits="userSpaceOnUse" x1="14.999" y1="26.0005" x2="14.999" y2="4">
	<stop  offset="0" style="stop-color:#636363"/>
	<stop  offset="1" style="stop-color:#000000"/>
</linearGradient>
<path fill="url(#SVGID_1_)" d="M6.908,18.058c-0.345,0.347-0.756,1.01-0.911,1.472l-1.954,5.862
	c-0.154,0.463,0.099,0.718,0.564,0.562l5.861-1.952c0.465-0.157,1.125-0.565,1.474-0.911l11.095-11.089l-5.032-5.032L6.908,18.058z
	 M9.762,22.754l-2.669,0.934l-0.776-0.782l0.933-2.669l0.524-0.527l2.514,2.52L9.762,22.754z M25.481,7.036l-2.517-2.518
	c-0.692-0.691-1.823-0.691-2.516,0l-1.252,1.255l5.034,5.032l1.251-1.254C26.173,8.861,26.173,7.728,25.481,7.036z"/>
</svg>
