<?xml version="1.0" encoding="utf-8"?>
<!-- Generator: Adobe Illustrator 17.1.0, SVG Export Plug-In . SVG Version: 6.00 Build 0)  -->
<!DOCTYPE svg PUBLIC "-//W3C//DTD SVG 1.1//EN" "http://www.w3.org/Graphics/SVG/1.1/DTD/svg11.dtd" [
	<!ENTITY ns_extend "http://ns.adobe.com/Extensibility/1.0/">
	<!ENTITY ns_ai "http://ns.adobe.com/AdobeIllustrator/10.0/">
	<!ENTITY ns_graphs "http://ns.adobe.com/Graphs/1.0/">
	<!ENTITY ns_vars "http://ns.adobe.com/Variables/1.0/">
	<!ENTITY ns_imrep "http://ns.adobe.com/ImageReplacement/1.0/">
	<!ENTITY ns_sfw "http://ns.adobe.com/SaveForWeb/1.0/">
	<!ENTITY ns_custom "http://ns.adobe.com/GenericCustomNamespace/1.0/">
	<!ENTITY ns_adobe_xpath "http://ns.adobe.com/XPath/1.0/">
]>
<svg version="1.1" id="图层_1" xmlns:x="&ns_extend;" xmlns:i="&ns_ai;" xmlns:graph="&ns_graphs;"
	 xmlns="http://www.w3.org/2000/svg" xmlns:xlink="http://www.w3.org/1999/xlink" x="0px" y="0px" width="96px" height="96px"
	 viewBox="0 0 96 96" enable-background="new 0 0 96 96" xml:space="preserve">
<metadata>
	<sfw  xmlns="&ns_sfw;">
		<slices></slices>
		<sliceSourceBounds  width="96" height="96" x="-8" y="-8" bottomLeftOrigin="true"></sliceSourceBounds>
	</sfw>
</metadata>
<rect id="BOUNDING_BOX" fill="none" width="96" height="96"/>
<path id="SHADOW" opacity="0.4" enable-background="new    " d="M88,49c0,29.6-10.4,40-40,40S8,78.6,8,49S18.4,9,48,9
	C77.7,9,88,19.4,88,49z"/>
<linearGradient id="GRAY_1_1_" gradientUnits="userSpaceOnUse" x1="560.8799" y1="-490.9805" x2="560.8799" y2="-570.9805" gradientTransform="matrix(1 0 0 -1 -512.8799 -482.9805)">
	<stop  offset="0.1" style="stop-color:#D77258"/>
	<stop  offset="1" style="stop-color:#834436"/>
</linearGradient>
<path id="GRAY_1" fill="url(#GRAY_1_1_)" d="M8,48c0,29.6,10.4,40,40,40s40-10.4,40-40c0-29-9.9-39.5-38.1-40h-3.8
	C17.9,8.5,8,19,8,48z"/>
<linearGradient id="HIGHLIGHT_GRA1_1_" gradientUnits="userSpaceOnUse" x1="560.8799" y1="-490.9805" x2="560.8799" y2="-570.9805" gradientTransform="matrix(1 0 0 -1 -512.8799 -482.9805)">
	<stop  offset="0" style="stop-color:#FFFFFF;stop-opacity:0.3"/>
	<stop  offset="0.5" style="stop-color:#FDFCFC;stop-opacity:0.2"/>
	<stop  offset="1" style="stop-color:#000000;stop-opacity:0.1"/>
</linearGradient>
<path id="HIGHLIGHT_GRA1" opacity="0.78" fill="url(#HIGHLIGHT_GRA1_1_)" enable-background="new    " d="M48,8C18.4,8,8,18.4,8,48
	s10.4,40,40,40s40-10.4,40-40S77.6,8,48,8z M48,87C18.8,87,9,77.2,9,48S18.8,9,48,9s39,9.8,39,39S77.2,87,48,87z"/>
<g id="DO_NOT_EDIT_-_BOUNDING_BOX">
</g>
<g id="DO_NOT_EDIT_-_SHADOW">
</g>
<g id="GRAY_BACKGROUNDS">
</g>
<path opacity="0.02" d="M56.309,76.783c-1.293,0-2.512-0.629-3.262-1.684l-4.79-6.743l-4.899,6.771
	c-0.749,1.037-1.96,1.656-3.24,1.656H29.42c-1.486,0-2.841-0.815-3.536-2.129l-0.786-1.486c-0.693-1.319-0.604-2.898,0.231-4.124
	l10.957-16.086h-9.852c-1.489,0-2.846-0.818-3.54-2.137l-0.784-1.492c-0.693-1.315-0.6-2.897,0.245-4.125L34.78,27.148
	c0.746-1.085,1.978-1.732,3.295-1.732h10.435c0.468,0,0.923,0.08,1.35,0.232c1.05-4.837,5.371-8.431,10.462-8.431
	c5.902,0,10.705,4.802,10.705,10.705c0,2.645-0.952,5.143-2.695,7.102l0.558,1.091c0.687,1.346,0.563,2.941-0.32,4.164L59.819,52.37
	l11.79,16.597c0.87,1.222,0.982,2.813,0.293,4.15l-0.774,1.502c-0.692,1.335-2.054,2.164-3.555,2.164H56.309z"/>
<path opacity="0.04" d="M56.309,75.783c-0.97,0-1.884-0.472-2.446-1.263l-5.598-7.881l-5.716,7.901
	c-0.562,0.778-1.471,1.242-2.43,1.242H29.42c-1.114,0-2.13-0.611-2.652-1.597L25.982,72.7c-0.52-0.989-0.454-2.173,0.173-3.093
	l12.4-18.204c-0.501,0.356-1.107,0.555-1.738,0.555H26.435c-1.117,0-2.134-0.614-2.655-1.603l-0.784-1.491
	c-0.52-0.986-0.45-2.173,0.184-3.094l12.423-18.055c0.56-0.813,1.483-1.299,2.471-1.299h10.435c0.811,0,1.573,0.326,2.127,0.884
	c0.321-5.063,4.542-9.083,9.685-9.083c5.352,0,9.705,4.354,9.705,9.705c0,2.593-1.01,5.03-2.843,6.862
	c-0.024,0.024-0.048,0.047-0.073,0.071c0.042,0.067,0.081,0.137,0.118,0.208l0.77,1.506c0.515,1.009,0.423,2.206-0.24,3.123
	l-9.169,12.673l12.205,17.181c0.652,0.916,0.737,2.109,0.22,3.113l-0.774,1.501c-0.519,1.001-1.54,1.623-2.666,1.623H56.309z
	 M52.328,33.429c-0.193-0.28-0.371-0.568-0.533-0.865l-0.563,0.865H52.328z"/>
<path opacity="0.06" d="M56.309,74.783c-0.646,0-1.256-0.314-1.631-0.842l-6.406-9.018l-6.534,9.031
	c-0.375,0.519-0.981,0.828-1.62,0.828H29.42c-0.743,0-1.42-0.407-1.768-1.064l-0.786-1.486c-0.347-0.659-0.302-1.448,0.116-2.062
	l18.343-26.93H43.18l-4.715,6.852c-0.374,0.542-0.99,0.865-1.647,0.865H26.435c-0.745,0-1.423-0.409-1.77-1.068l-0.783-1.49
	c-0.347-0.658-0.299-1.449,0.123-2.063l12.423-18.054c0.373-0.542,0.989-0.866,1.647-0.866h10.435c0.735,0,1.409,0.401,1.758,1.046
	l0.797,1.472c0.351,0.645,0.319,1.429-0.082,2.044l-1.595,2.45h5.215c-0.155-0.101-0.302-0.219-0.437-0.353
	c-1.644-1.644-2.549-3.83-2.549-6.154c0-4.8,3.904-8.705,8.704-8.705s8.705,3.905,8.705,8.705c0,2.325-0.905,4.511-2.55,6.155
	c-0.271,0.272-0.593,0.477-0.943,0.605c0.338,0.189,0.62,0.476,0.805,0.837l0.77,1.506c0.343,0.672,0.282,1.47-0.16,2.082
	L57.358,52.36l12.62,17.765c0.436,0.611,0.491,1.407,0.146,2.076l-0.774,1.5c-0.346,0.668-1.026,1.082-1.777,1.082H56.309z"/>
<path opacity="0.08" d="M56.309,73.783c-0.324,0-0.628-0.157-0.815-0.421l-7.214-10.155l-7.351,10.162
	c-0.188,0.26-0.489,0.414-0.81,0.414H29.42c-0.371,0-0.711-0.205-0.884-0.532l-0.786-1.486c-0.173-0.328-0.151-0.725,0.058-1.03
	l19.408-28.493h-4.563l-5.013,7.284c-0.187,0.271-0.495,0.433-0.824,0.433H26.435c-0.372,0-0.712-0.206-0.885-0.534l-0.783-1.489
	c-0.173-0.329-0.149-0.726,0.062-1.032l12.422-18.053c0.187-0.271,0.495-0.433,0.824-0.433h10.435c0.367,0,0.705,0.201,0.879,0.523
	l0.797,1.471c0.175,0.322,0.159,0.715-0.041,1.022l-2.601,3.996h9.669c0.685-0.117,1.194-0.715,1.194-1.415v-1.948
	c-0.234,0.155-0.505,0.246-0.79,0.262c-0.022,0.379-0.179,0.752-0.468,1.042c-0.302,0.303-0.707,0.471-1.138,0.471
	c-0.43,0-0.834-0.167-1.138-0.472c-1.455-1.455-2.257-3.39-2.257-5.448c0-4.249,3.456-7.705,7.704-7.705
	c4.249,0,7.705,3.456,7.705,7.705c0,2.059-0.802,3.993-2.257,5.448c-0.304,0.304-0.708,0.472-1.138,0.472
	c-0.431,0-0.835-0.167-1.139-0.472c-0.289-0.289-0.444-0.662-0.467-1.041c-0.285-0.017-0.557-0.107-0.791-0.262v1.948
	c0,0.7,0.51,1.298,1.194,1.415h1.127c0.376,0,0.72,0.21,0.891,0.545l0.77,1.506c0.171,0.334,0.14,0.737-0.08,1.041L56.128,52.355
	l13.035,18.349c0.217,0.305,0.245,0.705,0.073,1.038l-0.774,1.5c-0.172,0.332-0.515,0.541-0.889,0.541H56.309z"/>
<path opacity="0.1" d="M55.581,32.662c-1.267-1.267-1.964-2.95-1.964-4.741c0-3.697,3.008-6.705,6.705-6.705
	s6.705,3.008,6.705,6.705c0,1.791-0.697,3.475-1.964,4.741c-0.238,0.238-0.624,0.238-0.862,0c-0.238-0.238-0.238-0.624,0-0.862
	c1.036-1.036,1.606-2.414,1.606-3.879c0-3.025-2.461-5.486-5.486-5.486s-5.486,2.461-5.486,5.486c0,1.465,0.571,2.842,1.607,3.879
	c0.238,0.238,0.238,0.624,0,0.862c-0.119,0.119-0.275,0.178-0.431,0.178S55.7,32.781,55.581,32.662z M62.691,31.153
	c0.119,0.119,0.275,0.178,0.431,0.178c0.156,0,0.312-0.06,0.431-0.179c0.864-0.864,1.34-2.012,1.34-3.231
	c0-2.521-2.051-4.571-4.571-4.571s-4.571,2.051-4.571,4.571c0,1.219,0.476,2.367,1.34,3.231c0.238,0.238,0.624,0.238,0.862,0
	c0.238-0.238,0.238-0.624,0-0.862c-0.634-0.634-0.983-1.475-0.983-2.369c0-1.848,1.504-3.352,3.352-3.352s3.352,1.504,3.352,3.352
	c0,0.894-0.349,1.735-0.983,2.369C62.453,30.529,62.453,30.915,62.691,31.153z M54.898,52.351l10.428-14.416l-0.769-1.506h-1.2
	c-1.196-0.156-2.121-1.176-2.121-2.415v-4.168c0.719-0.343,1.219-1.076,1.219-1.924c0-1.176-0.957-2.133-2.133-2.133
	s-2.133,0.957-2.133,2.133c0,0.849,0.5,1.581,1.219,1.924v4.168c0,1.239-0.925,2.259-2.121,2.415H45.7l3.607-5.541l-0.798-1.471
	H38.075L25.652,47.469l0.783,1.489h10.382l5.31-7.717h6.98L28.635,71.297l0.786,1.486h10.697l8.169-11.293l8.023,11.293h11.264
	l0.774-1.5L54.898,52.351z"/>
<linearGradient id="SVGID_1_" gradientUnits="userSpaceOnUse" x1="47" y1="70.783" x2="47" y2="19.217">
	<stop  offset="0" style="stop-color:#E8E8E8"/>
	<stop  offset="0.4152" style="stop-color:#ECECEC"/>
	<stop  offset="0.8447" style="stop-color:#F9F9F9"/>
	<stop  offset="1" style="stop-color:#FFFFFF"/>
</linearGradient>
<path fill="url(#SVGID_1_)" d="M55.581,30.662c-1.267-1.267-1.964-2.95-1.964-4.741c0-3.697,3.008-6.705,6.705-6.705
	s6.705,3.008,6.705,6.705c0,1.791-0.697,3.475-1.964,4.741c-0.238,0.238-0.624,0.238-0.862,0c-0.238-0.238-0.238-0.624,0-0.862
	c1.036-1.036,1.606-2.414,1.606-3.879c0-3.025-2.461-5.486-5.486-5.486s-5.486,2.461-5.486,5.486c0,1.465,0.571,2.842,1.607,3.879
	c0.238,0.238,0.238,0.624,0,0.862c-0.119,0.119-0.275,0.178-0.431,0.178S55.7,30.781,55.581,30.662z M62.691,29.153
	c0.119,0.119,0.275,0.178,0.431,0.178c0.156,0,0.312-0.06,0.431-0.179c0.864-0.864,1.34-2.012,1.34-3.231
	c0-2.521-2.051-4.571-4.571-4.571s-4.571,2.051-4.571,4.571c0,1.219,0.476,2.367,1.34,3.231c0.238,0.238,0.624,0.238,0.862,0
	c0.238-0.238,0.238-0.624,0-0.862c-0.634-0.634-0.983-1.475-0.983-2.369c0-1.848,1.504-3.352,3.352-3.352s3.352,1.504,3.352,3.352
	c0,0.894-0.349,1.735-0.983,2.369C62.453,28.529,62.453,28.915,62.691,29.153z M54.898,50.351l10.428-14.416l-0.769-1.506h-1.2
	c-1.196-0.156-2.121-1.176-2.121-2.415v-4.168c0.719-0.343,1.219-1.076,1.219-1.924c0-1.176-0.957-2.133-2.133-2.133
	s-2.133,0.957-2.133,2.133c0,0.849,0.5,1.581,1.219,1.924v4.168c0,1.239-0.925,2.259-2.121,2.415H45.7l3.607-5.541l-0.798-1.471
	H38.075L25.652,45.469l0.783,1.489h10.382l5.31-7.717h6.98L28.635,69.297l0.786,1.486h10.697l8.169-11.293l8.023,11.293h11.264
	l0.774-1.5L54.898,50.351z"/>
<g opacity="0.02">
	<path d="M61.236,26.846v1c0.719-0.343,1.219-1.076,1.219-1.924c0-0.179-0.029-0.351-0.071-0.517
		C62.234,26.04,61.813,26.571,61.236,26.846z"/>
	<path d="M64.843,25.43c-0.114,1.026-0.548,1.981-1.29,2.723c-0.119,0.119-0.275,0.179-0.431,0.179c-0.128,0-0.25-0.05-0.358-0.13
		c-0.027,0.028-0.046,0.062-0.073,0.089c-0.238,0.238-0.238,0.624,0,0.862c0.119,0.119,0.275,0.178,0.431,0.178
		c0.156,0,0.312-0.06,0.431-0.179c0.864-0.864,1.34-2.012,1.34-3.231C64.893,25.753,64.861,25.593,64.843,25.43z"/>
	<path d="M63.624,25.43c0.026-0.167,0.05-0.336,0.05-0.508c0-1.848-1.504-3.352-3.352-3.352s-3.352,1.504-3.352,3.352
		c0,0.172,0.024,0.341,0.05,0.508c0.24-1.614,1.623-2.86,3.303-2.86S63.384,23.815,63.624,25.43z"/>
	<path d="M57.09,29.153c0.238,0.238,0.624,0.238,0.862,0c0.238-0.238,0.238-0.624,0-0.862c-0.028-0.028-0.047-0.061-0.073-0.089
		c-0.239,0.177-0.572,0.168-0.788-0.049c-0.742-0.742-1.176-1.697-1.29-2.723c-0.018,0.164-0.05,0.324-0.05,0.492
		C55.75,27.141,56.226,28.288,57.09,29.153z"/>
	<path d="M64.274,29.711c-0.027,0.028-0.046,0.062-0.073,0.089c-0.238,0.238-0.238,0.624,0,0.862c0.238,0.238,0.624,0.238,0.862,0
		c1.266-1.266,1.964-2.95,1.964-4.741c0-0.165-0.013-0.328-0.025-0.49c-0.12,1.598-0.794,3.086-1.939,4.231
		C64.846,29.879,64.513,29.888,64.274,29.711z"/>
	<polygon points="46.351,33.429 49.307,28.887 49.011,28.342 45.7,33.429 	"/>
	<path d="M56.012,30.841c0.156,0,0.312-0.06,0.431-0.178c0.238-0.238,0.238-0.624,0-0.862c-0.028-0.028-0.046-0.061-0.073-0.089
		c-0.107,0.08-0.23,0.13-0.358,0.13c-0.156,0-0.312-0.06-0.431-0.179c-1.145-1.145-1.819-2.633-1.939-4.231
		c-0.012,0.162-0.025,0.325-0.025,0.49c0,1.791,0.697,3.474,1.964,4.741C55.7,30.781,55.856,30.841,56.012,30.841z"/>
	<polygon points="42.128,39.241 48.427,39.241 49.108,38.241 42.128,38.241 36.818,45.958 26.435,45.958 25.95,45.036 
		25.652,45.469 26.435,46.958 36.818,46.958 	"/>
	<polygon points="67.573,69.783 56.309,69.783 48.286,58.49 40.117,69.783 29.421,69.783 28.932,68.86 28.635,69.297 29.421,70.783 
		40.117,70.783 48.286,59.49 56.309,70.783 67.573,70.783 68.348,69.283 68.049,68.862 	"/>
	<path d="M58.389,20.794c0.589-0.277,1.239-0.444,1.932-0.444s1.343,0.167,1.932,0.444c1.888,0.714,3.282,2.436,3.516,4.509
		c0.009-0.128,0.037-0.252,0.037-0.382c0-3.025-2.461-5.486-5.486-5.486s-5.486,2.461-5.486,5.486c0,0.13,0.028,0.254,0.037,0.382
		C55.107,23.23,56.502,21.508,58.389,20.794z"/>
	<polygon points="65.026,35.348 54.898,49.351 55.256,49.855 65.326,35.934 	"/>
	<path d="M58.259,25.405c-0.042,0.166-0.071,0.338-0.071,0.517c0,0.849,0.5,1.581,1.219,1.924v-1
		C58.83,26.571,58.409,26.04,58.259,25.405z"/>
</g>
<g opacity="0.05">
	<path d="M61.236,25.846v2c0.719-0.343,1.219-1.076,1.219-1.924c0-0.367-0.102-0.707-0.265-1.009
		C61.974,25.315,61.649,25.649,61.236,25.846z"/>
	<path d="M65.043,28.675c-0.235,0.402-0.504,0.787-0.842,1.125c-0.238,0.238-0.238,0.624,0,0.862c0.238,0.238,0.624,0.238,0.862,0
		c1.266-1.266,1.964-2.95,1.964-4.741c0-0.339-0.033-0.67-0.082-0.996c-0.211,1.409-0.855,2.711-1.881,3.737
		C65.057,28.668,65.049,28.67,65.043,28.675z"/>
	<polygon points="47.002,32.429 49.307,28.887 48.715,27.796 45.7,32.429 	"/>
	<path d="M57.09,29.153c0.238,0.238,0.624,0.238,0.862,0c0.238-0.238,0.238-0.624,0-0.862c-0.301-0.301-0.533-0.651-0.698-1.03
		c-0.058-0.029-0.115-0.06-0.164-0.109c-0.623-0.623-1.035-1.395-1.222-2.233c-0.073,0.323-0.118,0.657-0.118,1.002
		c0,0.444,0.084,0.872,0.206,1.287c0.154,0.203,0.303,0.409,0.487,0.592c0.19,0.19,0.221,0.47,0.109,0.698
		C56.711,28.729,56.888,28.95,57.09,29.153z"/>
	<path d="M60.322,19.35c2.057,0,3.779,1.374,4.352,3.245c0.513,0.669,0.876,1.458,1.037,2.318c0.059-0.325,0.097-0.655,0.097-0.992
		c0-0.988-0.266-1.913-0.725-2.715c-1.216-1.227-2.9-1.99-4.76-1.99s-3.545,0.762-4.76,1.99c-0.459,0.801-0.725,1.727-0.725,2.715
		c0,0.337,0.038,0.667,0.097,0.992c0.161-0.861,0.524-1.649,1.037-2.318C56.542,20.724,58.265,19.35,60.322,19.35z"/>
	<path d="M63.389,27.261c-0.166,0.378-0.397,0.728-0.698,1.029c-0.238,0.238-0.238,0.624,0,0.862
		c0.119,0.119,0.275,0.178,0.431,0.178c0.156,0,0.312-0.06,0.431-0.179c0.203-0.203,0.38-0.424,0.539-0.655
		c-0.112-0.228-0.08-0.508,0.109-0.697c0.183-0.183,0.333-0.388,0.486-0.591c0.122-0.415,0.206-0.843,0.206-1.288
		c0-0.345-0.046-0.678-0.118-1.002c-0.187,0.838-0.599,1.61-1.222,2.233C63.504,27.201,63.447,27.232,63.389,27.261z"/>
	<polygon points="42.128,39.241 47.745,39.241 49.108,37.241 42.128,37.241 36.818,44.958 26.435,44.958 26.248,44.603 
		25.652,45.469 26.435,46.958 36.818,46.958 	"/>
	<polygon points="67.573,68.783 56.309,68.783 48.286,57.49 40.117,68.783 29.421,68.783 29.23,68.423 28.635,69.297 29.421,70.783 
		40.117,70.783 48.286,59.49 56.309,70.783 67.573,70.783 68.348,69.283 67.75,68.441 	"/>
	<path d="M56.012,30.841c0.156,0,0.312-0.06,0.431-0.178c0.238-0.238,0.238-0.624,0-0.862c-0.338-0.338-0.607-0.723-0.842-1.125
		c-0.006-0.005-0.014-0.007-0.02-0.013c-1.026-1.026-1.671-2.328-1.882-3.737c-0.049,0.326-0.082,0.657-0.082,0.996
		c0,1.791,0.697,3.474,1.964,4.741C55.7,30.781,55.856,30.841,56.012,30.841z"/>
	<path d="M58.454,24.913c-0.164,0.302-0.265,0.642-0.265,1.009c0,0.849,0.5,1.581,1.219,1.924v-2
		C58.994,25.649,58.669,25.315,58.454,24.913z"/>
	<path d="M58.303,23.263c0.279-0.853,1.074-1.474,2.018-1.474s1.739,0.622,2.018,1.474c0.546,0.416,0.954,0.992,1.165,1.661
		c0.101-0.322,0.169-0.655,0.169-1.002c0-0.495-0.115-0.962-0.308-1.385c-0.81-0.729-1.871-1.186-3.044-1.186
		s-2.234,0.457-3.044,1.186c-0.194,0.423-0.308,0.89-0.308,1.385c0,0.347,0.068,0.68,0.169,1.002
		C57.349,24.254,57.757,23.678,58.303,23.263z"/>
	<polygon points="64.727,34.762 54.898,48.351 55.614,49.36 65.326,35.934 	"/>
</g>
<g>
	<path fill="#FFFFFF" d="M60.322,23.788c-1.176,0-2.133,0.957-2.133,2.133c0,0.168,0.034,0.326,0.071,0.483
		c0.233-0.926,1.066-1.616,2.063-1.616s1.83,0.69,2.063,1.616c0.037-0.157,0.071-0.315,0.071-0.483
		C62.455,24.745,61.498,23.788,60.322,23.788z"/>
	<path fill="#FFFFFF" d="M64.201,30.662c0.022,0.022,0.049,0.031,0.073,0.049c0.984-1.026,1.533-2.363,1.533-3.79
		c0-0.209-0.014-0.415-0.037-0.618c-0.091,1.32-0.625,2.553-1.569,3.497C63.963,30.038,63.963,30.424,64.201,30.662z"/>
	<path fill="#FFFFFF" d="M64.557,34.429h-1.2c-1.196-0.156-2.121-1.176-2.121-2.415v1c0,1.239,0.925,2.259,2.121,2.415h1.2
		l0.47,0.92l0.299-0.414L64.557,34.429z"/>
	<path fill="#FFFFFF" d="M55.75,25.922c0,0.172,0.031,0.339,0.05,0.508c0.249-2.287,2.169-4.079,4.522-4.079
		s4.272,1.792,4.522,4.079c0.019-0.169,0.05-0.336,0.05-0.508c0-1.828-1.085-3.397-2.639-4.127
		c-0.602-0.228-1.251-0.358-1.932-0.358s-1.33,0.13-1.932,0.358C56.836,22.525,55.75,24.094,55.75,25.922z"/>
	<polygon fill="#FFFFFF" points="48.427,40.241 28.635,69.297 28.932,69.86 49.108,40.241 	"/>
	<polygon fill="#FFFFFF" points="38.075,28.416 48.509,28.416 49.011,29.342 49.307,28.887 48.509,27.416 38.075,27.416 
		25.652,45.469 25.95,46.036 	"/>
	<path fill="#FFFFFF" d="M57.286,35.429c1.196-0.156,2.121-1.176,2.121-2.415v-1c0,1.239-0.925,2.259-2.121,2.415H46.351l-0.651,1
		H57.286z"/>
	<path fill="#FFFFFF" d="M63.624,26.43c-0.107,0.7-0.422,1.349-0.933,1.861c-0.238,0.238-0.238,0.624,0,0.862
		c0.022,0.022,0.049,0.031,0.073,0.049c0.582-0.623,0.91-1.425,0.91-2.28C63.674,26.753,63.648,26.591,63.624,26.43z"/>
	<path fill="#FFFFFF" d="M60.322,20.217c3.531,0,6.427,2.746,6.68,6.214c0.013-0.169,0.025-0.339,0.025-0.51
		c0-3.697-3.008-6.705-6.705-6.705s-6.705,3.008-6.705,6.705c0,0.171,0.012,0.341,0.025,0.51
		C53.895,22.963,56.79,20.217,60.322,20.217z"/>
	<polygon fill="#FFFFFF" points="55.256,50.855 54.898,51.351 68.049,69.862 68.348,69.283 	"/>
	<path fill="#FFFFFF" d="M57.952,28.291c-0.512-0.512-0.826-1.161-0.933-1.861c-0.024,0.162-0.05,0.324-0.05,0.492
		c0,0.855,0.327,1.656,0.91,2.28c0.024-0.018,0.052-0.027,0.073-0.049C58.19,28.915,58.19,28.529,57.952,28.291z"/>
	<path fill="#FFFFFF" d="M56.37,30.711c0.024-0.018,0.052-0.027,0.073-0.049c0.238-0.238,0.238-0.624,0-0.862
		c-0.945-0.945-1.478-2.178-1.57-3.497c-0.023,0.203-0.037,0.409-0.037,0.618C54.836,28.347,55.385,29.685,56.37,30.711z"/>
</g>
</svg>
